<?xml version="1.0" encoding="utf-8"?>
<!-- Generator: Adobe Illustrator 24.2.1, SVG Export Plug-In . SVG Version: 6.00 Build 0)  -->
<svg version="1.1" id="Ñëîé_1" xmlns="http://www.w3.org/2000/svg" xmlns:xlink="http://www.w3.org/1999/xlink" x="0px" y="0px"
	 viewBox="0 0 850.4 850.4" style="enable-background:new 0 0 850.4 850.4;" xml:space="preserve">
<style type="text/css">
	.st0{fill:#FF3EDF;}
	.st1{fill:#FFB734;}
	.st2{fill-rule:evenodd;clip-rule:evenodd;fill:#41FF4B;}
	.st3{fill-rule:evenodd;clip-rule:evenodd;fill:#865EA4;}
	.st4{fill-rule:evenodd;clip-rule:evenodd;fill:#FF6B6B;}
</style>
<g>
	<path class="st0" d="M736.4,180.8c-13.6-16.8-29.1-31.5-46.3-44.3C628.3,89.9,549.4,68,427.7,68c-73.2,0-142.6,4.8-195.8,13.3
		v390.1l145.4-83.8V184.9c12.4-2.9,33.3-5.7,65.6-5.7c74.7,0,132.7,25.4,166.9,74.5L736.4,180.8z"/>
	<path class="st1" d="M231.9,710.6c36.1,4.8,89.3,9.5,164.4,9.5c125.4,0,228.1-26.6,295.6-82.7c61.8-52.2,106.4-136.8,106.4-259.5
		c0-1.5,0-3.1,0-4.5l-164.1,92.2C608.1,561.9,532.4,607.8,427.7,607c-14.6,0-30.5,0-42.5-1.5l-153.3,86.1V710.6z"/>
	<path class="st2" d="M96.6,480.1L377.3,318v116.6L96.6,596.6V480.1z M564.2,210.1L690.8,137c27.4,20.5,50.6,46.1,68.4,77.1
		l-130.4,75.3C615.3,255,593.3,228.5,564.2,210.1L564.2,210.1z"/>
	<path class="st3" d="M52,622.4l325.4-187.8v116.5L52.5,738.7L52,622.4z M628.8,289.4l130.4-75.3c16,27.9,27.6,60.2,33.8,97
		L644.2,397c0.1-4.7,0.3-9.5,0.3-14.4C644.7,347,639.3,315.9,628.8,289.4L628.8,289.4z"/>
	<path class="st4" d="M178.7,665.8l198.6-114.7v53c12.4,2.9,32.3,2.9,50.4,2.9c23.8,0.1,45.9-2.1,66.4-6.7L178.7,782.4V665.8z
		 M644.2,397L793,311.1c3.5,20.8,5.4,43,5.4,66.8c0,16.8-0.8,32.8-2.4,48.1L595.2,541.9C624.6,507.7,641.9,459.5,644.2,397
		L644.2,397z"/>
</g>
</svg>
